<?xml version="1.0" encoding="utf-8"?>
<!-- Generator: Adobe Illustrator 22.0.1, SVG Export Plug-In . SVG Version: 6.00 Build 0)  -->
<svg version="1.1" id="Layer_1" xmlns="http://www.w3.org/2000/svg" xmlns:xlink="http://www.w3.org/1999/xlink" x="0px" y="0px"
	 viewBox="0 0 1417.3 1417.3" style="enable-background:new 0 0 1417.3 1417.3;" xml:space="preserve">
<path fill="#DDDDDD" d="M1273.8,677.4c-27.1-26.6-54.5-53-81.4-79.8c-103.6-103.5-207.1-207-310.5-310.7c-5.3-5.3-10.8-10.9-14.5-17.4
	c-7.3-12.6-4.6-24.8,5.3-34.7c9.9-9.9,22.1-12.5,34.7-5.4c5.9,3.4,11.1,8.3,16,13.2c146.2,146,292.3,292.1,438.4,438.3
	c25.7,25.7,25.7,37.5-0.1,63.3c-145.6,145.7-291.3,291.3-437,437c-3.6,3.6-7,7.4-11,10.4c-13.8,10.7-29.9,9.9-41.3-1.6
	c-11.5-11.5-12.1-27.7-1.3-41.3c3.5-4.4,7.8-8.3,11.9-12.3c125.1-125,250.1-250,375.3-374.9c4.9-4.9,10.8-8.8,16.2-13.2
	c-0.7-1.8-1.3-3.6-2-5.4c-7.1,0-14.2,0-21.3,0c-386,0-772,0-1158,0c-3.8,0-7.6,0-11.4,0c-25.6-0.2-39.8-11-39.8-30.4
	c0-19.4,14.2-30.4,39.8-30.4c389.2,0,778.3,0,1167.5,0c7.4,0,14.8,0,22.3,0C1272.3,680.5,1273.1,679,1273.8,677.4z"/>
</svg>
