<?xml version="1.0" ?><svg id="Layer_1" style="enable-background:new 0 0 32 32;" version="1.1" viewBox="0 0 32 32" xml:space="preserve" xmlns="http://www.w3.org/2000/svg" xmlns:xlink="http://www.w3.org/1999/xlink"><style type="text/css">
	.st0{clip-path:url(#SVGID_2_);}
	.st1{clip-path:url(#SVGID_4_);}
</style><g><path fill="#FFFFFF" d="M17.8662109,29c-1.8886719,0-3.4257813-1.5371094-3.4257813-3.4267578V6.4267578   C14.4404297,5.6401367,13.8007813,5,13.0136719,5s-1.4267578,0.6401367-1.4267578,1.4267578v10.9462891   c0,1.8896484-1.5371094,3.4267578-3.4267578,3.4267578s-3.4267578-1.5371094-3.4267578-3.4267578v-4.934082   c0-0.4970703-0.4042969-0.9013672-0.9013672-0.9013672H2c-0.5527344,0-1-0.4477539-1-1s0.4472656-1,1-1h1.8320313   c1.5996094,0,2.9013672,1.3017578,2.9013672,2.9013672v4.934082c0,0.7871094,0.6396484,1.4267578,1.4267578,1.4267578   s1.4267578-0.6396484,1.4267578-1.4267578V6.4267578C9.5869141,4.5371094,11.1240234,3,13.0136719,3   s3.4267578,1.5371094,3.4267578,3.4267578v19.1464844C16.4404297,26.3603516,17.0800781,27,17.8662109,27   c0.7871094,0,1.4267578-0.6396484,1.4267578-1.4267578V9.0268555c0-1.8896484,1.5371094-3.4267578,3.4267578-3.4267578   s3.4267578,1.5371094,3.4267578,3.4267578v4.0712891C26.1464844,13.5952148,26.5507813,14,27.0478516,14H30   c0.5527344,0,1,0.4477539,1,1s-0.4472656,1-1,1h-2.9521484c-1.5996094,0-2.9013672-1.3017578-2.9013672-2.9018555V9.0268555   c0-0.7866211-0.6396484-1.4267578-1.4267578-1.4267578s-1.4267578,0.6401367-1.4267578,1.4267578v16.5463867   C21.2929688,27.4628906,19.7558594,29,17.8662109,29z"/></g></svg>