<svg xmlns="http://www.w3.org/2000/svg" width="48" height="48" viewBox="0 0 48 48">
    <defs>
        <filter id="a" x="0" y="0" width="48" height="48" filterUnits="userSpaceOnUse">
            <feOffset/>
            <feGaussianBlur stdDeviation="3" result="blur"/>
            <feFlood/>
            <feComposite operator="in" in2="blur"/>
            <feComposite in="SourceGraphic"/>
        </filter>
    </defs>
    <g data-name="Group 224">
        <g style="filter:url(#a)">
            <g data-name="Path 113" style="fill:#333">
                <path d="M15 29.5a14.405 14.405 0 0 1-10.253-4.247A14.405 14.405 0 0 1 .5 15c0-3.873 1.508-7.514 4.247-10.253A14.405 14.405 0 0 1 15 .5c3.873 0 7.514 1.508 10.253 4.247A14.405 14.405 0 0 1 29.5 15c0 3.873-1.508 7.514-4.247 10.253A14.405 14.405 0 0 1 15 29.5z" style="stroke:none" transform="translate(9 9)"/>
                <path d="M15 1c-3.74 0-7.255 1.456-9.9 4.1A13.908 13.908 0 0 0 1 15c0 3.74 1.456 7.255 4.1 9.9A13.908 13.908 0 0 0 15 29c3.74 0 7.255-1.456 9.9-4.1A13.908 13.908 0 0 0 29 15c0-3.74-1.456-7.255-4.1-9.9A13.908 13.908 0 0 0 15 1m0-1c8.284 0 15 6.716 15 15 0 8.284-6.716 15-15 15-8.284 0-15-6.716-15-15C0 6.716 6.716 0 15 0z" style="fill:#fff;stroke:none" transform="translate(9 9)"/>
            </g>
        </g>
        <g data-name="icon close">
            <path data-name="Path 114" d="m2.4 2.567.076-.088A.783.783 0 0 1 3.5 2.4l.088.076L8.25 7.143l4.664-4.664a.783.783 0 0 1 1.107 1.107L9.357 8.25l4.664 4.664a.783.783 0 0 1 .076 1.019l-.076.088A.783.783 0 0 1 13 14.1l-.088-.076L8.25 9.357l-4.664 4.664a.783.783 0 0 1-1.107-1.107L7.143 8.25 2.479 3.586A.783.783 0 0 1 2.4 2.567l.076-.088z" transform="translate(15.75 15.75)" style="fill:#fff"/>
        </g>
    </g>
</svg>
