<svg xmlns="http://www.w3.org/2000/svg" width="16" height="16" viewBox="0 0 16 16">
    <defs>
        <clipPath id="a">
            <path data-name="Rectangle 113" transform="translate(260 1170)" style="fill:#fff;stroke:#707070" d="M0 0h16v16H0z"/>
        </clipPath>
    </defs>
    <g data-name="Mask Group 48" transform="translate(-260 -1170)" style="clip-path:url(#a)">
        <g data-name="Group 59">
            <g data-name="Group 58">
                <path data-name="Path 99" d="M275.731 1180.731a.89.89 0 0 0-.654-.269h-4.462l-1.307 1.307a1.857 1.857 0 0 1-2.615 0l-1.3-1.308h-4.47a.891.891 0 0 0-.654.269.89.89 0 0 0-.269.655v3.077a.89.89 0 0 0 .269.654.89.89 0 0 0 .654.269h14.154a.919.919 0 0 0 .923-.923v-3.077a.89.89 0 0 0-.269-.654zm-3.606 3.24a.6.6 0 1 1 .183-.433.592.592 0 0 1-.183.433zm2.461 0a.6.6 0 1 1 .183-.433.591.591 0 0 1-.182.433z"/>
                <path data-name="Path 100" d="M267.567 1180.894a.6.6 0 0 0 .865 0l4.308-4.307a.555.555 0 0 0 .135-.673.575.575 0 0 0-.567-.375h-2.462v-4.308a.592.592 0 0 0-.182-.431.592.592 0 0 0-.433-.185h-2.462a.592.592 0 0 0-.433.185.591.591 0 0 0-.183.433v4.305h-2.461a.575.575 0 0 0-.567.375.555.555 0 0 0 .135.673z"/>
            </g>
        </g>
    </g>
</svg>
