<svg id="Thời_gian_bắt_đầu" data-name="Thời gian bắt đầu" xmlns="http://www.w3.org/2000/svg" width="70" height="70" viewBox="0 0 70 70">
    <defs>
        <clipPath id="clip-path">
            <path id="Rectangle_105" data-name="Rectangle 105" transform="translate(748 777)" style="fill:#fff;stroke:#707070" d="M0 0h70v70H0z"/>
        </clipPath>
        <style>
            .cls-5,.cls-7,.cls-8{fill:none;stroke:#575756;stroke-linejoin:round}.cls-5,.cls-8{stroke-width:1.708px}.cls-7,.cls-8{fill-rule:evenodd}.cls-5,.cls-8{stroke-linecap:round}.cls-7{stroke-width:1.281px}
        </style>
    </defs>
    <g id="Mask_Group_47" data-name="Mask Group 47" transform="translate(-748 -777)" style="clip-path:url(#clip-path)">
        <g id="V3" transform="translate(751.291 776.786)">
            <g id="CourseDetailPage_V3" transform="translate(-793.247 -405.589)">
                <g id="Group">
                    <g id="Group-27" transform="translate(156.259 406.443)">
                        <g id="Group-9" transform="translate(603.688)">
                            <g id="Group-4" transform="translate(34.155)">
                                <path id="Stroke-1" d="M4.949 45.469V4.461a.191.191 0 0 1 .19-.191h49.274a3.9 3.9 0 0 1 3.9 3.9v30.158" style="fill-rule:evenodd;stroke-width:1.708px;stroke-linejoin:round;stroke:#575756;fill:none"/>
                                <path id="Stroke-3" transform="translate(42.624 55.575)" style="stroke-width:1.708px;stroke-linejoin:round;stroke:#575756;fill:none" d="M.002 0H0"/>
                                <path id="Stroke-5" class="cls-5" transform="translate(30.468 50.62)" d="M0 0h2.323"/>
                                <g id="Group-17" transform="translate(46.11 12.808)">
                                    <path id="Stroke-7" d="M1.708 3.06 2.75 4.739a.08.08 0 0 0 .15-.008L6.662 0" style="stroke:#dc2d27;stroke-width:1.025px;fill-rule:evenodd;stroke-linejoin:round;fill:none"/>
                                    <path id="Stroke-31" class="cls-7" d="M5.977 3.717v2.676a.1.1 0 0 1-.1.1H.095a.1.1 0 0 1-.095-.1V.611a.1.1 0 0 1 .095-.1h2.979"/>
                                </g>
                                <path id="Stroke-13" class="cls-8" d="M48.2 33.549c.032-2.061 4.708-1.884 4.741.212v1.931a.189.189 0 0 0 .318.137c1.014-.935 4.085-.576 4.085 1.085V38.8"/>
                                <path id="Fill-15" d="M42.624 55.574H.191A.191.191 0 0 1 0 55.383V45.66a.191.191 0 0 1 .191-.191h37.932a51.566 51.566 0 0 1 4.5 10.106" style="fill:#d9d9d9;fill-rule:evenodd"/>
                                <path id="Stroke-17" class="cls-8" d="M42.624 55.574H.191A.191.191 0 0 1 0 55.383V45.66a.191.191 0 0 1 .191-.191h37.932a51.566 51.566 0 0 1 4.501 10.105z"/>
                                <path id="Stroke-19" class="cls-8" d="M58.3 61.963a.19.19 0 0 0 .191-.185 21.058 21.058 0 0 1 .338-3.412c.313-1.371 1.709-2.44 2.074-5.061.809-5.77 1.3-12.207.01-14.006a2.157 2.157 0 0 0-2.608-.971 6.615 6.615 0 0 0-.848.3.2.2 0 0 0-.119.178v4.42"/>
                                <path id="Stroke-21" class="cls-8" d="M48.2 38.1V24.508c0-2.767-5.033-2.767-5.033 0v18.443a.191.191 0 0 1-.347.111c-1.719-2.434-3.2-4.391-5.3-5.7-1.639-1.019-3.791 1.478-2.738 3.123a58.251 58.251 0 0 1 3.342 4.986"/>
                                <path id="Stroke-23" class="cls-8" d="M42.624 55.575c.3.881.6 1.808.9 2.791a13.217 13.217 0 0 1 .4 3.407.189.189 0 0 0 .19.19"/>
                                <path id="Stroke-25" class="cls-5" transform="translate(52.939 36.536)" d="M0 0v4.279"/>
                                <path id="Fill-27" d="M60.782 62.155v6.16a.192.192 0 0 1-.191.191H41.678a.191.191 0 0 1-.19-.191v-6.16a.19.19 0 0 1 .19-.191h18.913a.191.191 0 0 1 .191.191" style="fill:#dc2d27;fill-rule:evenodd"/>
                                <path id="Stroke-29" d="M60.782 62.155v6.16a.192.192 0 0 1-.191.191H41.678a.191.191 0 0 1-.19-.191v-6.16a.19.19 0 0 1 .19-.191h18.913a.191.191 0 0 1 .191.191z" style="fill-rule:evenodd;stroke-width:1.708px;stroke:#575756;fill:none"/>
                                <path id="Stroke-33" class="cls-7" d="M16.129 19.3h-5.787a.1.1 0 0 1-.1-.1v-5.78a.1.1 0 0 1 .1-.1h5.787a.1.1 0 0 1 .1.1v5.78a.1.1 0 0 1-.1.1z"/>
                                <path id="Stroke-33-2" data-name="Stroke-33" class="cls-7" d="M19.626 5.977H18.8c-.007 0-.014-.044-.014-.1V.1c0-.054.006-.1.014-.1h.827c.007 0 .014.044.014.1v5.78c-.002.053-.008.097-.015.097z"/>
                                <path id="Stroke-33-Copy-3" class="cls-7" d="M43.534 5.977h-.827c-.007 0-.014-.044-.014-.1V.1c0-.054.006-.1.014-.1h.827c.007 0 .014.044.014.1v5.78c0 .053-.006.097-.014.097z"/>
                                <path id="Stroke-33-Copy-4" class="cls-7" d="M16.129 30.4h-5.787a.1.1 0 0 1-.1-.1v-5.78a.1.1 0 0 1 .1-.1h5.787a.1.1 0 0 1 .1.1v5.78a.1.1 0 0 1-.1.1z"/>
                                <path id="Stroke-33-Copy-7" class="cls-7" d="M16.129 41.5h-5.787a.1.1 0 0 1-.1-.1v-5.78a.1.1 0 0 1 .1-.1h5.787a.1.1 0 0 1 .1.1v5.78a.1.1 0 0 1-.1.1z"/>
                                <path id="Stroke-33-Copy" class="cls-7" d="M28.083 19.3H22.3a.1.1 0 0 1-.1-.1v-5.78a.1.1 0 0 1 .1-.1h5.787a.1.1 0 0 1 .1.1v5.78a.1.1 0 0 1-.104.1z"/>
                                <path id="Stroke-33-Copy-5" class="cls-7" d="M28.083 30.4H22.3a.1.1 0 0 1-.1-.1v-5.78a.1.1 0 0 1 .1-.1h5.787a.1.1 0 0 1 .1.1v5.78a.1.1 0 0 1-.104.1z"/>
                                <path id="Stroke-33-Copy-8" class="cls-7" d="M28.083 41.5H22.3a.1.1 0 0 1-.1-.1v-5.78a.1.1 0 0 1 .1-.1h5.787a.1.1 0 0 1 .1.1v5.78a.1.1 0 0 1-.104.1z"/>
                                <path id="Stroke-33-Copy-2" class="cls-7" d="M40.037 19.3h-5.786a.1.1 0 0 1-.1-.1v-5.78a.1.1 0 0 1 .1-.1h5.787a.1.1 0 0 1 .1.1v5.78a.1.1 0 0 1-.101.1z"/>
                                <path id="Stroke-33-Copy-6" class="cls-7" d="M40.037 30.4h-5.786a.1.1 0 0 1-.1-.1v-5.78a.1.1 0 0 1 .1-.1h5.787a.1.1 0 0 1 .1.1v5.78a.1.1 0 0 1-.101.1z"/>
                                <path id="Rectangle" d="M5.124 4.269q44.891.611 48.915.611t4.025 5.366H5.124z" style="fill:#575756;fill-rule:evenodd"/>
                            </g>
                        </g>
                    </g>
                </g>
            </g>
        </g>
    </g>
</svg>
