<svg id="Thời_gian" data-name="Thời gian" xmlns="http://www.w3.org/2000/svg" width="70" height="70" viewBox="0 0 70 70">
    <defs>
        <clipPath id="clip-path">
            <path id="Rectangle_103" data-name="Rectangle 103" style="fill:#fff;stroke:#707070" d="M0 0h70v70H0z"/>
        </clipPath>
        <style>
            .cls-3{fill:#f8f8f8}.cls-3,.cls-4,.cls-5,.cls-6,.cls-7{fill-rule:evenodd}.cls-4{fill:#f1f1f1}.cls-5{fill:#db2d28}.cls-6{fill:#901717}.cls-7{fill:#585856}
        </style>
    </defs>
    <g id="Mask_Group_45" data-name="Mask Group 45" style="clip-path:url(#clip-path)">
        <g id="V3" transform="translate(9.033)">
            <g id="CourseDetailPage_V3">
                <g id="Group">
                    <g id="Group-27">
                        <g id="Group-13">
                            <g id="Group-34">
                                <path id="Fill-1" class="cls-3" d="M50.323 3.871c0 15.171-8.471 28.02-20.361 32.742C18.149 31.891 9.677 19.042 9.677 3.871z" transform="translate(-4.032 -1.613)"/>
                                <path id="Fill-3" class="cls-4" d="M51.129 3.871c0 15.171-8.58 28.02-20.624 32.742-8.816-3.483-15.822-11.456-18.892-21.441a32.488 32.488 0 0 0 17.082 16.719C39.4 27.634 47.429 16.875 49 3.871z" transform="translate(-4.839 -1.613)"/>
                                <path id="Fill-5" class="cls-3" d="M50.323 93.871c0-15.657-8.471-28.918-20.361-33.871C18.149 64.953 9.677 78.214 9.677 93.871z" transform="translate(-4.032 -25)"/>
                                <path id="Fill-7" class="cls-4" d="M50.323 94.355c0-13.065-6.295-24.5-15.543-30.484a37.468 37.468 0 0 1 10.413 26.362H9.911a35.634 35.634 0 0 0-.233 4.122z" transform="translate(-4.032 -26.613)"/>
                                <path id="Fill-9" class="cls-5" d="M35.042 87.1a23.3 23.3 0 0 0-11.816 12.416h23.71A23.16 23.16 0 0 0 35.042 87.1" transform="translate(-9.677 -36.29)"/>
                                <path id="Fill-11" class="cls-6" d="M35.042 87.1h-.077a24.617 24.617 0 0 1 8.057 10.309h-18.8a17.388 17.388 0 0 0-1 2.11h23.71A23.16 23.16 0 0 0 35.042 87.1" transform="translate(-9.677 -36.29)"/>
                                <path id="Fill-13" class="cls-5" d="M38.026 40a17.307 17.307 0 0 1-8.994-9.032H47.1A17.179 17.179 0 0 1 38.026 40" transform="translate(-12.097 -12.903)"/>
                                <path id="Fill-15" class="cls-6" d="M38.026 40a17.307 17.307 0 0 1-8.994-9.032h.076a16.6 16.6 0 0 0 8 7.042 16.946 16.946 0 0 0 8-7.042H47.1A17.179 17.179 0 0 1 38.026 40" transform="translate(-12.097 -12.903)"/>
                                <path id="Fill-17" class="cls-7" d="M27.78 36.129a1.33 1.33 0 0 1-.5-.1C14.435 30.877 5.806 16.937 5.806 1.343a1.343 1.343 0 1 1 2.685 0c0 14.3 7.729 27.08 19.291 31.988 11.607-4.9 19.37-17.675 19.37-31.988a1.343 1.343 0 0 1 2.686 0c0 15.608-8.664 29.548-21.56 34.69a1.314 1.314 0 0 1-.5.1" transform="translate(-2.419)"/>
                                <g id="Group-21" transform="translate(0 .331)">
                                    <path id="Fill-19" class="cls-7" d="M50.46 3.355H1.327A1.359 1.359 0 0 1 0 1.961 1.359 1.359 0 0 1 1.327.567H50.46a1.359 1.359 0 0 1 1.327 1.394 1.359 1.359 0 0 1-1.327 1.394" transform="translate(0 -.567)"/>
                                </g>
                                <path id="Fill-22" class="cls-7" d="M48.5 94.194a1.339 1.339 0 0 1-1.343-1.34c0-14.25-7.762-27.029-19.37-31.995C16.222 65.838 8.492 78.617 8.492 92.854a1.343 1.343 0 0 1-2.686 0c0-15.522 8.626-29.462 21.468-34.691a1.351 1.351 0 0 1 1.01 0c12.894 5.213 21.554 19.153 21.554 34.691a1.339 1.339 0 0 1-1.343 1.34" transform="translate(-2.419 -24.194)"/>
                                <path id="Fill-24" class="cls-7" d="M50.605 118.387H1.33a1.144 1.144 0 1 1 0-2.258h49.275a1.144 1.144 0 1 1 0 2.258" transform="translate(0 -48.387)"/>
                                <path id="Fill-26" class="cls-7" d="M28.73 31.808a16.442 16.442 0 0 0 7.122 6.743 16.355 16.355 0 0 0 7.193-6.743zm7.116 9.644a1.287 1.287 0 0 1-.513-.1 19.554 19.554 0 0 1-10.05-10.353 1.42 1.42 0 0 1 .093-1.326 1.335 1.335 0 0 1 1.131-.636h18.76a1.336 1.336 0 0 1 1.132.636 1.42 1.42 0 0 1 .092 1.326 19.471 19.471 0 0 1-10.14 10.359 1.316 1.316 0 0 1-.5.1z" transform="translate(-10.484 -12.097)"/>
                                <path id="Fill-28" class="cls-7" d="M24.816 97.173h20.043A21.711 21.711 0 0 0 34.8 87.945a21.831 21.831 0 0 0-9.985 9.228m22.228 2.666h-24.41a1.341 1.341 0 0 1-1.127-.608 1.327 1.327 0 0 1-.1-1.274 24.688 24.688 0 0 1 12.88-12.7 1.36 1.36 0 0 1 1.009 0 24.586 24.586 0 0 1 12.971 12.7 1.335 1.335 0 0 1-1.225 1.882" transform="translate(-8.871 -35.484)"/>
                                <path id="Fill-30" class="cls-7" d="M43.71 86.935a1.32 1.32 0 0 1-1.129-1.454v-2.737a1.165 1.165 0 1 1 2.258 0v2.737a1.32 1.32 0 0 1-1.129 1.454" transform="translate(-17.742 -33.871)"/>
                                <path id="Fill-32" class="cls-7" d="M43.71 73.387a1.335 1.335 0 0 1-1.129-1.476v-2.693a1.17 1.17 0 1 1 2.258 0v2.694a1.335 1.335 0 0 1-1.129 1.476" transform="translate(-17.742 -28.226)"/>
                            </g>
                        </g>
                    </g>
                </g>
            </g>
        </g>
    </g>
</svg>
