<svg xmlns="http://www.w3.org/2000/svg" width="227.14" height="75" viewBox="0 0 229 75"><title>logo--main</title><path fill="#231f20" d="M0 5h65v65H0z"/><path d="M10.64 26.77a9.55 9.55 0 0 1-3.73-.49v-1.77a5.49 5.49 0 0 0 3.91 1.14c2.64.09 4.25-1.1 4.25-3.17 0-1.59-1.18-2.42-2.57-3.2l-3-1.74c-1.63-1-2.59-2.06-2.61-3.85 0-2.64 2.57-4.2 5.38-4.11a8.43 8.43 0 0 1 3.35.49v1.72a4.29 4.29 0 0 0-3.17-1.14c-1.83-.11-3.84 1.12-3.69 3a3.19 3.19 0 0 0 2 2.44l2.66 1.54c2 1.16 3.69 1.79 3.8 4.63.13 3.69-3.49 4.63-6.5 4.56M37.68 11.42a3.52 3.52 0 0 0-.32.64l-5.27 14.7-4.17-11.19-4.09 11.27-5.59-15.06a1.42 1.42 0 0 0-.3-.59 1.87 1.87 0 0 0-.57-.51h2.9a1 1 0 0 0-.19.47.71.71 0 0 0 0 .47l3.87 11 3.32-8.85-.78-2a2.12 2.12 0 0 0-.42-.61 4.86 4.86 0 0 0-.44-.49h2.88a1.26 1.26 0 0 0-.11 1.16l3.9 10.82L35.9 12a1.39 1.39 0 0 0 .19-.74 1.08 1.08 0 0 0-.19-.57h2.33a6.17 6.17 0 0 0-.55.76" fill="#fff"/><path d="M40.07 15.27h-1.93l.05.08a1.69 1.69 0 0 1 .23.49 1.54 1.54 0 0 1 .09.57v9.06a1.25 1.25 0 0 1-.08.56 1.18 1.18 0 0 1-.17.36l-.06.08h1.94v-.08L40 26.3a.72.72 0 0 1-.12-.3 13.81 13.81 0 0 1 0-1.44v-8.18a1.75 1.75 0 0 1 .1-.61 3.89 3.89 0 0 1 .18-.42v-.08h-.09zM57.11 11.35a4 4 0 0 0-.06.85v14.81L44.28 12.88v11.75a3.82 3.82 0 0 0 .15 1.16 4.79 4.79 0 0 0 .19.68h-2a1.3 1.3 0 0 0 .28-.57 2.9 2.9 0 0 0 .1-.84V11.84a1.3 1.3 0 0 0-.17-.68 1 1 0 0 0-.45-.49h2.33l11.04 12.65v-10a9.18 9.18 0 0 0-.11-2c0-.23-.08-.38-.15-.61h1.78a3.84 3.84 0 0 0-.17.7M18 45.14h-4.2a2.4 2.4 0 0 0 .25-.44 2.2 2.2 0 0 0 .15-.83v-13a2.07 2.07 0 0 0-.2-.96 3.27 3.27 0 0 0-.34-.59h4.78a3.88 3.88 0 0 1 3.75 3.79 3 3 0 0 1-1.71 3l-.59.36.63.23a3.8 3.8 0 0 1 2.73 4c0 2.8-2 4.51-5.23 4.51m-.6-14.84h-1.55v5.7h1.38c2.31 0 3.37-1.25 3.3-3a2.81 2.81 0 0 0-3.13-2.73m-.08 6.71a5.07 5.07 0 0 0-1.38.13V44a3.84 3.84 0 0 0 1.55.19c2.07-.13 4.11-1.29 4-3.58-.06-2.71-2.12-3.45-4.21-3.52M38 30a4.5 4.5 0 0 0 0 .76V40c0 3-2.6 5.27-5.86 5.34-3.49 0-6.33-2.2-6.33-5.42v-9.06a4.09 4.09 0 0 0 0-.72 3.38 3.38 0 0 0-.19-.83h2.16a2.18 2.18 0 0 0-.19.66 2.91 2.91 0 0 0 0 .74v9A4.39 4.39 0 0 0 32.14 44a4.07 4.07 0 0 0 4.11-4.11v-9.07a5.06 5.06 0 0 0 0-.81 3.84 3.84 0 0 0-.21-.7h2.2A3.61 3.61 0 0 0 38 30M50.49 45.16l-6.35-8.26a2.56 2.56 0 0 0-.42-.51 1.26 1.26 0 0 0-.28-.19v7.26a3 3 0 0 0 .06.87 3.51 3.51 0 0 0 .23.76h-2.32a1.69 1.69 0 0 0 .25-.66 11.44 11.44 0 0 0 .06-1.61V31.48A7.42 7.42 0 0 0 41.6 30a2.31 2.31 0 0 0-.3-.66h4.76a3.61 3.61 0 0 1 3.87 3.64 3.79 3.79 0 0 1-4.3 3.73c.13.11.19.19.32.3a10.12 10.12 0 0 1 1.1 1.21L50.83 43a10.32 10.32 0 0 0 1.35 1.57c.3.25.49.4.8.64h-2.5zm-5.36-14.91a3.5 3.5 0 0 0-1.67.3V36a8.89 8.89 0 0 0 1.38 0c2.16-.12 3.49-1.26 3.36-3-.09-1.27-.51-2.63-3.07-2.73M34 48.63a3.94 3.94 0 0 0-.06.85v14.8L21.13 50.16v11.75a3.83 3.83 0 0 0 .15 1.17 4.7 4.7 0 0 0 .19.68h-2a1.3 1.3 0 0 0 .28-.57 2.87 2.87 0 0 0 .08-.85V49.12a1.29 1.29 0 0 0-.17-.68 1 1 0 0 0-.45-.44h2.33l11.07 12.6v-10a9.19 9.19 0 0 0-.11-2c0-.23-.08-.38-.15-.61h1.78a3.74 3.74 0 0 0-.17.7" fill="#fff"/><path d="M46.66 63.76h-9.12a1.66 1.66 0 0 0 .28-.59 2.59 2.59 0 0 0 0-.8V49.1a1.75 1.75 0 0 0-.13-.68 1.27 1.27 0 0 0-.3-.44h8.11v1.59a1.44 1.44 0 0 0-.61-.38 2.54 2.54 0 0 0-1-.06h-4.3v5.21h5.91v1.5a4 4 0 0 0-.89-.3 3.87 3.87 0 0 0-.7 0h-4.23v7.07h5.06a4.91 4.91 0 0 0 1.76-.25 2.24 2.24 0 0 0 .71-.36zM9.36 53a.39.39 0 0 1 .12 0l.3.17h.53s.38.23.39.24a2.22 2.22 0 0 1 .16.3 1.26 1.26 0 0 1 0 .39.9.9 0 0 1 0 .18 1.51 1.51 0 0 0 0 .25.38.38 0 0 0 .23.27.35.35 0 0 0 .32-.25v-.07a1 1 0 0 1 0-.87.81.81 0 0 1 .59-.4h.37a2.39 2.39 0 0 0 .32-.13.49.49 0 0 1 .08.08.39.39 0 0 1 0 .18 1.35 1.35 0 0 0 .08.57 1.25 1.25 0 0 1-.11.55.66.66 0 0 1-.26.25c-.21.1-.74 0-.82.35a.28.28 0 0 0 0 .14.64.64 0 0 0 .19.14 1.32 1.32 0 0 0 .47-.24 1.63 1.63 0 0 1 .4-.1.49.49 0 0 0 .13 0h.25a1.27 1.27 0 0 1 .3.49.94.94 0 0 1 .13.45 2.09 2.09 0 0 1-.36.29 1.11 1.11 0 0 1-.28.24 1.4 1.4 0 0 1-.24.05.89.89 0 0 1-.74-.41 1.28 1.28 0 0 0-.16-.39.35.35 0 0 0-.45 0 .67.67 0 0 0-.06.2v.09a.6.6 0 0 0 0 .06 1.62 1.62 0 0 0 .35.28.92.92 0 0 1 .13.25 1.75 1.75 0 0 1 .09.32 1.31 1.31 0 0 1 0 .29 1 1 0 0 1-.39.41 1.69 1.69 0 0 1-.37.28.7.7 0 0 1-.41-.33l-.15-.12a.76.76 0 0 1-.19-.57.54.54 0 0 1 0-.19 2 2 0 0 1 .2-.32 1.38 1.38 0 0 0 .28-.24.42.42 0 0 0 0-.2.89.89 0 0 0-.18-.19.54.54 0 0 0-.36.25 3.91 3.91 0 0 1-.26.41.82.82 0 0 1-.32.16h-.29a.9.9 0 0 1-.48-.23 2.5 2.5 0 0 0-.31-.26.23.23 0 0 1 0-.19 1.51 1.51 0 0 1 .16-.22 2.59 2.59 0 0 1 .18-.42.56.56 0 0 1 .08.04 1.75 1.75 0 0 1 .22-.2.75.75 0 0 1 .48 0l.3.13v.12l.12.08a.28.28 0 0 0 .28-.08.23.23 0 0 0 0-.17 3.31 3.31 0 0 0-.43-.29h-.13a1 1 0 0 1-.17-.11 1.39 1.39 0 0 1-.15-.05 1 1 0 0 1-.28-.71 2.2 2.2 0 0 1 .13-.52 1.13 1.13 0 0 0-.06-.38.35.35 0 0 1 0-.12M55.83 53a.37.37 0 0 0-.12 0l-.3.17h-.53s-.38.23-.4.24a2.3 2.3 0 0 0-.16.29 1.27 1.27 0 0 0 0 .39.92.92 0 0 0 0 .18 1.44 1.44 0 0 1 0 .25.38.38 0 0 1-.23.27.35.35 0 0 1-.32-.25.57.57 0 0 1 0-.07 1 1 0 0 0 0-.87.81.81 0 0 0-.62-.41h-.37a2.32 2.32 0 0 1-.32-.13.44.44 0 0 0-.08.08.38.38 0 0 0 0 .18 1.37 1.37 0 0 1-.08.57 1.22 1.22 0 0 0 .11.55.65.65 0 0 0 .26.25c.21.1.74 0 .82.34a.29.29 0 0 1 0 .14.65.65 0 0 1-.19.14 1.31 1.31 0 0 1-.47-.24 1.69 1.69 0 0 0-.36-.07.46.46 0 0 1-.13 0h-.25a1.28 1.28 0 0 0-.3.49.92.92 0 0 0-.13.45 2 2 0 0 0 .36.3 1.12 1.12 0 0 0 .28.24 1.64 1.64 0 0 0 .23.05.89.89 0 0 0 .74-.41 1.29 1.29 0 0 1 .16-.39.35.35 0 0 1 .45 0 .65.65 0 0 1 .06.2v.09a.51.51 0 0 1 0 .06 1.56 1.56 0 0 1-.35.27 1 1 0 0 0-.13.25 1.71 1.71 0 0 0-.09.32 1.38 1.38 0 0 0 0 .29 1 1 0 0 0 .39.41 1.7 1.7 0 0 0 .37.28.7.7 0 0 0 .41-.33l.15-.12a.77.77 0 0 0 .19-.57.53.53 0 0 0 0-.18 1.88 1.88 0 0 0-.2-.32 1.44 1.44 0 0 1-.28-.24.42.42 0 0 1 0-.2.85.85 0 0 1 .18-.19.54.54 0 0 1 .36.25 3.7 3.7 0 0 0 .26.41.79.79 0 0 0 .32.16h.29a.9.9 0 0 0 .48-.23 2.51 2.51 0 0 1 .31-.26.23.23 0 0 0 0-.19 1.54 1.54 0 0 0-.16-.22 2.73 2.73 0 0 0-.18-.42.65.65 0 0 0-.09-.06 1.79 1.79 0 0 0-.22-.2.75.75 0 0 0-.48 0l-.31.15s-.05.09-.09.12l-.07.14a.28.28 0 0 1-.28-.08.23.23 0 0 1 0-.17 3.54 3.54 0 0 1 .43-.29h.13a1 1 0 0 0 .17-.11s.11 0 .15-.05a1 1 0 0 0 .4-.67 2.17 2.17 0 0 0-.13-.52 1.13 1.13 0 0 1 .06-.38.35.35 0 0 0 0-.12" fill="#fff"/><path fill="#dc2d27" d="M73 0h1v75h-1z"/><path d="M109 23.08a2.08 2.08 0 0 0-1.74-2.35c-.68-.22-1.38-.41-2.07-.62-4.64-1.37-9.26-2.81-13.94-4a7.51 7.51 0 0 0-3.19.33 32.48 32.48 0 0 0-4.12 1.48 2.72 2.72 0 0 0-1.75 2.7c-.05 6.59-.13 13.18-.18 19.77 0 1.56.5 2.17 2 2.5 4.64 1 9.28 2 13.92 2.92a3.36 3.36 0 0 1 2.32 1.64 5.89 5.89 0 0 1 .63 4.66c1.85-.71 3.66-1.12 5.33-1.94a5.29 5.29 0 0 0 1.79-2.09 10.51 10.51 0 0 0 1-5.43V23.08z" fill="#231f20" fill-rule="evenodd"/><path d="M91.24 16.07c4.68 1.22 9.3 2.67 13.94 4 .69.2 1.38.4 2.07.62a2.08 2.08 0 0 1 1.75 2.39v19.57a10.52 10.52 0 0 1-1 5.43 5.29 5.29 0 0 1-1.75 2.05 7.79 7.79 0 0 0-.23-4c-.62-1.62-1.41-3-3.42-3.39-3.76-.69-7.49-1.55-11.24-2.33-1.55-.33-2.06-.93-2.06-2.5V18.83c.01-1.83.49-2.96 1.94-2.76z" fill="#e2231a" fill-rule="evenodd"/><path d="M127.46 33.61a4 4 0 0 1-1.57 3.39 6.79 6.79 0 0 1-4.25 1.21 10.65 10.65 0 0 1-4.48-.75v-1.85a11.77 11.77 0 0 0 2.19.67 11.53 11.53 0 0 0 2.35.25 4.74 4.74 0 0 0 2.86-.72 2.37 2.37 0 0 0 1-2 2.58 2.58 0 0 0-.34-1.39 3.17 3.17 0 0 0-1.14-1 16 16 0 0 0-2.43-1 7.76 7.76 0 0 1-3.26-1.94 4.27 4.27 0 0 1-1-2.92 3.63 3.63 0 0 1 1.42-3 5.91 5.91 0 0 1 3.76-1.12 11.08 11.08 0 0 1 4.49.9l-.59 1.66a10.14 10.14 0 0 0-3.94-.85 3.81 3.81 0 0 0-2.36.65 2.14 2.14 0 0 0-.85 1.8 2.76 2.76 0 0 0 .31 1.39 3 3 0 0 0 1.06 1 13.12 13.12 0 0 0 2.28 1 9 9 0 0 1 3.54 2 3.87 3.87 0 0 1 .95 2.62zM140.54 38l-2.25-7.2q-.21-.66-.79-3h-.1q-.45 2-.78 3L134.3 38h-2.15l-3.34-12.3h1.95l1.81 7a28.54 28.54 0 0 1 .71 3.26h.09q.12-.64.4-1.65t.48-1.61l2.25-7h2l2.19 7a23.75 23.75 0 0 1 .85 3.23h.09a11.82 11.82 0 0 1 .24-1.24q.2-.84 2.33-9h1.92L142.74 38h-2.2zM148.65 22.38a1.23 1.23 0 0 1 .31-.93 1.16 1.16 0 0 1 1.56 0 1.21 1.21 0 0 1 .32.93 1.23 1.23 0 0 1-.32.93 1.08 1.08 0 0 1-.77.31 1.07 1.07 0 0 1-.78-.31 1.26 1.26 0 0 1-.32-.93zm2 15.59h-1.86V25.7h1.86V38zM162.54 38v-8a3.2 3.2 0 0 0-.68-2.24 2.78 2.78 0 0 0-2.14-.74 3.52 3.52 0 0 0-2.82 1 5.25 5.25 0 0 0-.9 3.44V38h-1.86V25.7h1.51l.3 1.68h.05a3.79 3.79 0 0 1 1.6-1.4 5.2 5.2 0 0 1 2.29-.5 4.66 4.66 0 0 1 3.33 1.07A4.55 4.55 0 0 1 164.4 30v8h-1.86zM173.46 25.5a4.56 4.56 0 0 1 3.75 1.65 7.25 7.25 0 0 1 1.34 4.67 7.3 7.3 0 0 1-1.35 4.69 4.54 4.54 0 0 1-3.74 1.67 5.31 5.31 0 0 1-2.19-.44 4.11 4.11 0 0 1-1.66-1.36h-.13l-.4 1.62h-1.33V20.55h1.86v4.23q0 1.42-.09 2.55h.09a4.41 4.41 0 0 1 3.85-1.83zm-.27 1.56a3.24 3.24 0 0 0-2.74 1.09 6.15 6.15 0 0 0-.84 3.68 6.14 6.14 0 0 0 .86 3.7 3.28 3.28 0 0 0 2.76 1.11 2.86 2.86 0 0 0 2.55-1.25 6.41 6.41 0 0 0 .84-3.59 6.16 6.16 0 0 0-.84-3.57 3 3 0 0 0-2.59-1.17zM183.08 25.7v8a3.2 3.2 0 0 0 .68 2.24 2.78 2.78 0 0 0 2.14.74 3.49 3.49 0 0 0 2.81-1.05 5.31 5.31 0 0 0 .89-3.44V25.7h1.86V38h-1.53l-.27-1.64h-.1a3.7 3.7 0 0 1-1.56 1.35 5.32 5.32 0 0 1-2.31.48 4.69 4.69 0 0 1-3.35-1.06 4.52 4.52 0 0 1-1.11-3.4v-8h1.88zM200.54 25.48a7.27 7.27 0 0 1 1.47.13l-.26 1.72a6.33 6.33 0 0 0-1.34-.17 3.27 3.27 0 0 0-2.55 1.21 4.41 4.41 0 0 0-1.06 3V38h-1.86V25.7h1.53l.22 2.3h.09a5.39 5.39 0 0 1 1.65-1.85 3.7 3.7 0 0 1 2.11-.67zM212.24 38v-8a3.2 3.2 0 0 0-.68-2.24 2.78 2.78 0 0 0-2.14-.74 3.52 3.52 0 0 0-2.82 1 5.25 5.25 0 0 0-.9 3.44V38h-1.86V25.7h1.51l.3 1.68h.09a3.79 3.79 0 0 1 1.6-1.4 5.2 5.2 0 0 1 2.29-.5 4.66 4.66 0 0 1 3.37 1.07 4.55 4.55 0 0 1 1.09 3.45v8h-1.86zM222.63 38.19a5.63 5.63 0 0 1-4.29-1.66 6.41 6.41 0 0 1-1.57-4.6 7.11 7.11 0 0 1 1.46-4.71 4.85 4.85 0 0 1 3.92-1.75A4.63 4.63 0 0 1 225.8 27a5.81 5.81 0 0 1 1.34 4v1.17h-8.45a4.86 4.86 0 0 0 1.09 3.28 3.77 3.77 0 0 0 2.92 1.12 9.88 9.88 0 0 0 3.92-.83v1.66a9.82 9.82 0 0 1-1.86.61 10.48 10.48 0 0 1-2.13.18zm-.5-11.19a3 3 0 0 0-2.36 1 4.43 4.43 0 0 0-1 2.66h6.41a4.09 4.09 0 0 0-.78-2.69 2.76 2.76 0 0 0-2.27-.97z" fill="#231f20"/><path d="M129.91 51a9.91 9.91 0 0 1-1.73 6.18 5.72 5.72 0 0 1-4.8 2.25 5.77 5.77 0 0 1-4.85-2.21 10 10 0 0 1-1.71-6.24 9.87 9.87 0 0 1 1.71-6.19 5.81 5.81 0 0 1 4.87-2.2 5.7 5.7 0 0 1 4.79 2.24 9.91 9.91 0 0 1 1.72 6.17zm-11.15 0a8.59 8.59 0 0 0 1.24 5 3.72 3.72 0 0 0 3.34 1.72A3.66 3.66 0 0 0 126.7 56a8.72 8.72 0 0 0 1.3-5 8.65 8.65 0 0 0-1.25-5 3.65 3.65 0 0 0-3.31-1.71A3.73 3.73 0 0 0 120 46a8.51 8.51 0 0 0-1.24 5zM141.57 59.17v-7.94a3.2 3.2 0 0 0-.68-2.24 2.78 2.78 0 0 0-2.14-.74 3.52 3.52 0 0 0-2.82 1 5.25 5.25 0 0 0-.9 3.44v6.43h-1.86V46.9h1.51l.3 1.68h.09a3.79 3.79 0 0 1 1.6-1.4 5.2 5.2 0 0 1 2.29-.5 4.66 4.66 0 0 1 3.34 1.07 4.55 4.55 0 0 1 1.12 3.42v8h-1.86zM148.9 59.17H147V41.75h1.86v17.42zM152.49 43.58a1.23 1.23 0 0 1 .31-.93 1.16 1.16 0 0 1 1.56 0 1.21 1.21 0 0 1 .32.93 1.23 1.23 0 0 1-.32.93 1.08 1.08 0 0 1-.77.31 1.07 1.07 0 0 1-.78-.31 1.26 1.26 0 0 1-.32-.93zm2 15.59h-1.86V46.9h1.86v12.27zM166.65 59.17v-7.94A3.2 3.2 0 0 0 166 49a2.78 2.78 0 0 0-2.14-.74 3.53 3.53 0 0 0-2.82 1 5.25 5.25 0 0 0-.9 3.44v6.43h-1.86V46.9h1.51l.3 1.68h.09a3.8 3.8 0 0 1 1.6-1.4 5.2 5.2 0 0 1 2.29-.5 4.66 4.66 0 0 1 3.33 1.07 4.55 4.55 0 0 1 1.12 3.42v8h-1.86zM177.12 59.39a5.63 5.63 0 0 1-4.29-1.66 6.41 6.41 0 0 1-1.57-4.6 7.11 7.11 0 0 1 1.46-4.71 4.85 4.85 0 0 1 3.92-1.75 4.63 4.63 0 0 1 3.65 1.52 5.81 5.81 0 0 1 1.34 4v1.18h-8.45a4.86 4.86 0 0 0 1.09 3.28 3.77 3.77 0 0 0 2.91 1.12 9.87 9.87 0 0 0 3.92-.83v1.66a9.83 9.83 0 0 1-1.86.61 10.47 10.47 0 0 1-2.12.18zm-.5-11.16a3 3 0 0 0-2.36 1 4.44 4.44 0 0 0-1 2.66h6.41a4.09 4.09 0 0 0-.78-2.69 2.76 2.76 0 0 0-2.28-.97z" fill="#dc2d27"/></svg>