<svg xmlns="http://www.w3.org/2000/svg" xmlns:xlink="http://www.w3.org/1999/xlink" width="182" height="60" viewBox="0 0 182 60">
  <defs>
    <style>
      .cls-1, .cls-4, .cls-5 {
        fill: #fff;
      }

      .cls-1 {
        stroke: #707070;
      }

      .cls-2 {
        clip-path: url(#clip-path);
      }

      .cls-3 {
        fill: #231f20;
      }

      .cls-5 {
        fill-rule: evenodd;
      }
    </style>
    <clipPath id="clip-path">
      <rect id="Rectangle_39" data-name="Rectangle 39" class="cls-1" width="182" height="60" transform="translate(898 3627)"/>
    </clipPath>
  </defs>
  <g id="Mask_Group_24" data-name="Mask Group 24" class="cls-2" transform="translate(-898 -3627)">
    <g id="SOL_Mono_Reversed" transform="translate(899.442 3627)">
      <g id="Group_18" data-name="Group 18">
        <rect id="Rectangle_40" data-name="Rectangle 40" class="cls-3" width="50.933" height="50.933" transform="translate(0.537 4.533)"/>
        <path id="Path_31" data-name="Path 31" class="cls-4" d="M20.986,21.276H71.919V72.183H20.986Zm50.933-.537H20.449V72.746H72.456V20.739Z" transform="translate(-20.449 -16.743)"/>
        <path id="Path_32" data-name="Path 32" class="cls-4" d="M29.322,38.336a7.438,7.438,0,0,1-2.914-.387V36.567a4.322,4.322,0,0,0,3.063.88c2.069.07,3.327-.88,3.327-2.482,0-1.241-.88-1.893-2.016-2.509l-2.377-1.364a3.414,3.414,0,0,1-2.051-3.011c0-2.069,2.016-3.292,4.217-3.222a6.752,6.752,0,0,1,2.641.379v1.356a3.363,3.363,0,0,0-2.491-.88c-1.435-.088-3.011.88-2.887,2.315a2.518,2.518,0,0,0,1.523,1.9l2.086,1.206c1.576.88,2.887,1.4,2.975,3.627.106,2.887-2.729,3.627-5.1,3.574" transform="translate(-20.449 -16.743)"/>
        <path id="Path_33" data-name="Path 33" class="cls-4" d="M50.511,26.3a2.209,2.209,0,0,0-.246.5L46.127,38.319l-3.266-8.8-3.2,8.8-4.4-11.8a1.127,1.127,0,0,0-.229-.458,1.637,1.637,0,0,0-.449-.4h2.271a.748.748,0,0,0-.15.37.511.511,0,0,0,0,.361l3.037,8.636,2.641-6.937-.616-1.567a1.849,1.849,0,0,0-.335-.475,3.6,3.6,0,0,0-.343-.387h2.254a.88.88,0,0,0-.132.317,1.056,1.056,0,0,0,0,.6l3.055,8.486,2.817-8.389a1.012,1.012,0,0,0,.15-.581.722.722,0,0,0-.15-.44h1.831a4.6,4.6,0,0,0-.431.59" transform="translate(-20.449 -16.743)"/>
        <path id="Path_34" data-name="Path 34" class="cls-4" d="M52.386,29.322H50.871l.044.07a1.408,1.408,0,0,1,.176.387,1.127,1.127,0,0,1,.07.44v7.1a1.065,1.065,0,0,1-.062.44h0a.88.88,0,0,1-.132.282v.062h1.514v-.062l-.053-.079a.546.546,0,0,1-.106-.229,10.45,10.45,0,0,1,0-1.127V30.2a1.382,1.382,0,0,1,.079-.484c.053-.123.088-.22.141-.335v-.062Z" transform="translate(-20.449 -16.743)"/>
        <path id="Path_35" data-name="Path 35" class="cls-4" d="M65.739,26.259a2.861,2.861,0,0,0-.053.66v11.6L55.678,27.456v9.208a2.887,2.887,0,0,0,.123.88,3.759,3.759,0,0,0,.15.528H54.375a1.047,1.047,0,0,0,.211-.449,2.113,2.113,0,0,0,.07-.66V26.637a1.021,1.021,0,0,0-.132-.528.88.88,0,0,0-.352-.387h1.822l8.68,9.912v-7.87a7.306,7.306,0,0,0-.079-1.576,4.182,4.182,0,0,0-.123-.475h1.391a2.64,2.64,0,0,0-.123.546" transform="translate(-20.449 -16.743)"/>
        <path id="Path_36" data-name="Path 36" class="cls-4" d="M35.1,52.729H31.8a2.333,2.333,0,0,0,.2-.343,1.849,1.849,0,0,0,.114-.651V41.523a1.611,1.611,0,0,0-.167-.722,2.447,2.447,0,0,0-.264-.467h3.75A3.028,3.028,0,0,1,38.363,43.3a2.324,2.324,0,0,1-1.338,2.324l-.467.282.493.185A2.984,2.984,0,0,1,39.2,49.2c0,2.183-1.576,3.521-4.1,3.521M34.63,41.153h-1.18v4.463h1.074c1.813,0,2.641-.977,2.588-2.324a2.2,2.2,0,0,0-2.456-2.139M34.6,46.435a4.1,4.1,0,0,0-1.083.1v5.282a3,3,0,0,0,1.215.15c1.62-.1,3.213-1.012,3.169-2.8-.053-2.13-1.664-2.711-3.3-2.755" transform="translate(-20.449 -16.743)"/>
        <path id="Path_37" data-name="Path 37" class="cls-4" d="M50.783,40.88a3.38,3.38,0,0,0,0,.6v7.254c0,2.386-2.042,4.129-4.6,4.181-2.738,0-4.956-1.761-4.956-4.252V41.54a4.058,4.058,0,0,0,0-.563,2.861,2.861,0,0,0-.15-.643h1.69a1.822,1.822,0,0,0-.15.511,2.174,2.174,0,0,0,0,.581v7.042a3.433,3.433,0,0,0,3.618,3.319,3.187,3.187,0,0,0,3.222-3.222v-7.06a3.618,3.618,0,0,0,0-.625,2.641,2.641,0,0,0-.167-.546h1.761a2.642,2.642,0,0,0-.132.546" transform="translate(-20.449 -16.743)"/>
        <path id="Path_38" data-name="Path 38" class="cls-4" d="M60.546,52.746l-4.974-6.47a2.218,2.218,0,0,0-.335-.4,1.285,1.285,0,0,0-.211-.15v5.7a2.509,2.509,0,0,0,.044.678,2.94,2.94,0,0,0,.185.6H53.433a1.356,1.356,0,0,0,.194-.511,8.468,8.468,0,0,0,.07-1.259v-8.9a6.1,6.1,0,0,0-.1-1.2,1.761,1.761,0,0,0-.238-.511H57.1a2.826,2.826,0,0,1,3.019,2.817,2.967,2.967,0,0,1-3.363,2.923c.1.079.15.15.246.229a9.023,9.023,0,0,1,.88.951l2.931,3.82a8.037,8.037,0,0,0,1.065,1.224c.229.2.379.317.625.5ZM56.338,41.065a2.711,2.711,0,0,0-1.312.229v4.278a6.682,6.682,0,0,0,1.083,0c1.708-.132,2.738-1.03,2.641-2.4-.07-.995-.4-2.06-2.412-2.139" transform="translate(-20.449 -16.743)"/>
        <path id="Path_39" data-name="Path 39" class="cls-4" d="M47.6,55.458a2.9,2.9,0,0,0-.053.669l-.009,11.655L37.544,56.664V65.88a3.019,3.019,0,0,0,.114.88,4.4,4.4,0,0,0,.15.528H36.232a1.039,1.039,0,0,0,.22-.44,2.491,2.491,0,0,0,.062-.669V55.854a1.056,1.056,0,0,0-.132-.537.775.775,0,0,0-.352-.379h1.822l8.671,9.912v-7.87a7.28,7.28,0,0,0-.079-1.576,1.934,1.934,0,0,0-.114-.484H47.72a2.9,2.9,0,0,0-.132.546" transform="translate(-20.449 -16.743)"/>
        <path id="Path_40" data-name="Path 40" class="cls-4" d="M57.544,67.315H50.4a1.223,1.223,0,0,0,.22-.414,2.192,2.192,0,0,0,0-.634V55.836a1.329,1.329,0,0,0-.106-.537.977.977,0,0,0-.229-.343H56.6V56.2a1.153,1.153,0,0,0-.484-.3,2.033,2.033,0,0,0-.766,0H52.025v4.076h4.613v1.18a3.072,3.072,0,0,0-.7-.229,2.931,2.931,0,0,0-.555,0H52.069V66.47h3.97a3.794,3.794,0,0,0,1.373-.2A1.585,1.585,0,0,0,57.975,66Z" transform="translate(-20.449 -16.743)"/>
        <path id="Path_41" data-name="Path 41" class="cls-4" d="M28.319,58.882h.1l.238.141h.414s.3.185.308.194a1.892,1.892,0,0,1,.123.229,1.206,1.206,0,0,1,0,.308.792.792,0,0,1,0,.141s0,.185,0,.194a.343.343,0,0,0,.185.211c.088,0,.255-.106.255-.2v-.053a.766.766,0,0,1,0-.678.607.607,0,0,1,.484-.317h.29a1.427,1.427,0,0,0,.246-.1l.062.062v.141a1,1,0,0,0,.07.449,1.048,1.048,0,0,1-.088.431.537.537,0,0,1-.2.194c-.167.079-.581,0-.643.273v.114a.423.423,0,0,0,.15.106h0c.141,0,.211-.106.37-.185a1.25,1.25,0,0,1,.352-.106h.106l.176.053a.977.977,0,0,1,.229.387c0,.079.141.282.106.352s-.211.158-.282.229a.81.81,0,0,1-.22.194.634.634,0,0,1-.757-.282c-.053-.1,0-.211-.123-.308a.291.291,0,0,0-.361,0,1.066,1.066,0,0,0,0,.158v.07a.229.229,0,0,1,0,.044c0,.106.2.141.273.22a.88.88,0,0,1,.106.194,1.127,1.127,0,0,1,.062.255.625.625,0,0,1,0,.22.731.731,0,0,1-.308.326c-.114.07-.176.194-.282.22s-.229-.158-.326-.255-.1-.07-.114-.1a.607.607,0,0,1-.15-.44.88.88,0,0,1,0-.15,1.6,1.6,0,0,1,.167-.255c.07-.079.176-.106.22-.185a.44.44,0,0,0,0-.15,1.532,1.532,0,0,0-.141-.158c-.088,0-.282.185-.29.2a2.412,2.412,0,0,1-.2.317.5.5,0,0,1-.246.123h-.229a.739.739,0,0,1-.37-.185,2.887,2.887,0,0,0-.246-.2h0c0-.079-.053-.088,0-.15A1.069,1.069,0,0,0,27.949,61a3.583,3.583,0,0,1,.15-.334h.07a1.427,1.427,0,0,1,.167-.158.563.563,0,0,1,.379,0l.246.114a.11.11,0,0,0,.062.1l.1.062h0a.22.22,0,0,0,.22-.062s.053-.106,0-.132a2.808,2.808,0,0,0-.335-.229h-.22c-.053,0-.07-.053-.123-.079h-.123a.757.757,0,0,1-.308-.528,1.761,1.761,0,0,1,.106-.4c0-.123-.053-.185-.053-.3a.317.317,0,0,1,0-.1" transform="translate(-20.449 -16.743)"/>
        <path id="Path_42" data-name="Path 42" class="cls-4" d="M64.736,58.882h-.1l-.238.132h-.414l-.308.194a1.891,1.891,0,0,0-.123.229.88.88,0,0,0,0,.308.792.792,0,0,0,0,.141.828.828,0,0,1,0,.194.308.308,0,0,1-.176.211c-.088,0-.264-.106-.255-.194s0,0,0-.062a.766.766,0,0,0,0-.678.607.607,0,0,0-.484-.317h-.29a1.426,1.426,0,0,1-.246-.1s-.062.044-.062.062v.141a1.136,1.136,0,0,1-.07.449.924.924,0,0,0,.088.431.537.537,0,0,0,.2.194c.167.079.581,0,.643.273a.255.255,0,0,1,0,.114.519.519,0,0,1-.15.106h0c-.141,0-.211-.106-.37-.185a1.338,1.338,0,0,0-.352-.106h-.106l-.176.053a.977.977,0,0,0-.229.387c0,.079-.141.282-.106.352s.2.158.282.229a.7.7,0,0,0,.22.194.634.634,0,0,0,.757-.282c.053-.1,0-.211.123-.308a.291.291,0,0,1,.352,0,.563.563,0,0,1,.053.158v.123a2.126,2.126,0,0,0-.273.211.88.88,0,0,0-.106.194,2.492,2.492,0,0,0-.07.255,1.074,1.074,0,0,0,0,.229.757.757,0,0,0,.308.317c.114.07.176.194.282.22s.229-.158.317-.255a1.506,1.506,0,0,0,.123-.1.607.607,0,0,0,.15-.44.414.414,0,0,0,0-.15.881.881,0,0,0-.158-.246c-.079-.088-.185-.114-.22-.194a.44.44,0,0,1,0-.15.59.59,0,0,1,.141-.15c.088-.053.282.176.29.194a2.412,2.412,0,0,0,.273.352.5.5,0,0,0,.246.123h.229a.7.7,0,0,0,.37-.185,2.279,2.279,0,0,1,.246-.194h0c0-.079.053-.088,0-.15a2.138,2.138,0,0,1-.123-.176,1.76,1.76,0,0,0-.088-.3.211.211,0,0,0-.07-.053,1.021,1.021,0,0,0-.176-.158.669.669,0,0,0-.37,0l-.246.114a.11.11,0,0,1-.062.1l-.1.062h0a.238.238,0,0,1-.22-.062s-.044-.106,0-.132a2.245,2.245,0,0,1,.335-.229h.026c.053,0,.07-.053.123-.079h.123a.739.739,0,0,0,.308-.528,1.76,1.76,0,0,0-.106-.4c0-.123.053-.185.053-.3a.317.317,0,0,0,0-.1" transform="translate(-20.449 -16.743)"/>
        <rect id="Rectangle_41" data-name="Rectangle 41" class="cls-4" width="0.942" height="60" transform="translate(57.544)"/>
      </g>
      <path id="Path_43" data-name="Path 43" class="cls-4" d="M122.8,56.338a7.835,7.835,0,0,1-1.32,4.859,5.009,5.009,0,0,1-7.623,0,7.861,7.861,0,0,1-1.356-4.93,7.79,7.79,0,0,1,1.356-4.886,4.578,4.578,0,0,1,3.847-1.761,4.5,4.5,0,0,1,3.776,1.761,7.834,7.834,0,0,1,1.32,4.956m-8.8,0a6.743,6.743,0,0,0,1,3.979,2.94,2.94,0,0,0,2.641,1.356,2.9,2.9,0,0,0,2.641-1.347,6.884,6.884,0,0,0,.977-3.988,6.893,6.893,0,0,0-.986-3.952,2.887,2.887,0,0,0-2.641-1.347,2.949,2.949,0,0,0-2.641,1.356A6.7,6.7,0,0,0,114,56.338" transform="translate(-20.449 -16.743)"/>
      <path id="Path_44" data-name="Path 44" class="cls-4" d="M120.863,42.623a3.16,3.16,0,0,1-1.241,2.641,5.37,5.37,0,0,1-3.354.959,8.407,8.407,0,0,1-3.521-.6V44.2a9.982,9.982,0,0,0,1.761.528,8.935,8.935,0,0,0,1.857.194,3.7,3.7,0,0,0,2.262-.572,1.875,1.875,0,0,0,.757-1.585,2,2,0,0,0-.273-1.1,2.535,2.535,0,0,0-.88-.792,13.142,13.142,0,0,0-1.919-.819,6.162,6.162,0,0,1-2.579-1.532,3.38,3.38,0,0,1-.775-2.306,2.87,2.87,0,0,1,1.127-2.377,4.7,4.7,0,0,1,2.967-.88,8.864,8.864,0,0,1,3.521.7l-.475,1.312a7.922,7.922,0,0,0-3.107-.669,3.01,3.01,0,0,0-1.866.511,1.761,1.761,0,0,0-.669,1.426,2.227,2.227,0,0,0,.246,1.092,2.35,2.35,0,0,0,.88.792,10.922,10.922,0,0,0,1.761.792,7.139,7.139,0,0,1,2.755,1.576,3.063,3.063,0,0,1,.766,2.157" transform="translate(-20.449 -16.743)"/>
      <path id="Path_45" data-name="Path 45" class="cls-4" d="M131.162,46.065,129.4,40.379c-.106-.343-.317-1.136-.625-2.368h-.07c-.238,1.03-.44,1.831-.616,2.386l-1.831,5.669h-1.7l-2.641-9.683h1.54l1.426,5.563a24.261,24.261,0,0,1,.563,2.57h.07c.062-.335.167-.775.308-1.3s.273-.96.379-1.268l1.761-5.563h1.585l1.761,5.563a17.606,17.606,0,0,1,.669,2.553h.062a5.622,5.622,0,0,1,.194-.986c.106-.449.713-2.817,1.84-7.13H135.6l-2.641,9.683Z" transform="translate(-20.449 -16.743)"/>
      <path id="Path_46" data-name="Path 46" class="cls-4" d="M137.6,33.75a.942.942,0,0,1,.246-.731.88.88,0,0,1,1.224,0,1.188,1.188,0,0,1,0,1.47.88.88,0,0,1-1.224,0,.977.977,0,0,1-.246-.739m1.585,12.324H137.72V36.391h1.461Z" transform="translate(-20.449 -16.743)"/>
      <path id="Path_47" data-name="Path 47" class="cls-4" d="M148.556,46.065V39.8a2.518,2.518,0,0,0-.537-1.761,2.21,2.21,0,0,0-1.69-.581,2.8,2.8,0,0,0-2.227.819,4.19,4.19,0,0,0-.7,2.711v5.088h-1.461V36.391h1.188l.238,1.329h.07a3,3,0,0,1,1.268-1.109,4.049,4.049,0,0,1,1.8-.4,3.653,3.653,0,0,1,2.641.88,3.592,3.592,0,0,1,.88,2.7v6.32Z" transform="translate(-20.449 -16.743)"/>
      <path id="Path_48" data-name="Path 48" class="cls-4" d="M157.183,36.224a3.592,3.592,0,0,1,2.958,1.294,5.739,5.739,0,0,1,1.056,3.7,5.8,5.8,0,0,1-1.056,3.706,3.6,3.6,0,0,1-2.958,1.32,4.225,4.225,0,0,1-1.761-.352,3.16,3.16,0,0,1-1.312-1.074h-.062l-.317,1.25h-1.048V32.315h1.47v3.336a17.821,17.821,0,0,1-.07,2.016h.07a3.46,3.46,0,0,1,3.037-1.444m-.211,1.224a2.562,2.562,0,0,0-2.165.88,4.868,4.868,0,0,0-.66,2.9,4.8,4.8,0,0,0,.678,2.914,2.57,2.57,0,0,0,2.183.88,2.271,2.271,0,0,0,2.007-1.012,5.062,5.062,0,0,0,.66-2.826,4.9,4.9,0,0,0-.66-2.826,2.359,2.359,0,0,0-2.051-.924" transform="translate(-20.449 -16.743)"/>
      <path id="Path_49" data-name="Path 49" class="cls-4" d="M164.78,36.382v6.276a2.518,2.518,0,0,0,.537,1.761,2.209,2.209,0,0,0,1.69.581,2.738,2.738,0,0,0,2.218-.827,4.155,4.155,0,0,0,.7-2.711V36.382h1.47v9.683h-1.215l-.211-1.3h-.079a2.852,2.852,0,0,1-1.25,1.092,4.164,4.164,0,0,1-1.822.387,3.7,3.7,0,0,1-2.641-.88,3.583,3.583,0,0,1-.88-2.641V36.382Z" transform="translate(-20.449 -16.743)"/>
      <path id="Path_50" data-name="Path 50" class="cls-4" d="M178.565,36.2a6.435,6.435,0,0,1,1.153.106l-.2,1.364a5,5,0,0,0-1.056-.132,2.641,2.641,0,0,0-2.016.951,3.521,3.521,0,0,0-.827,2.377v5.2h-1.47V36.382h1.206l.167,1.761h.07a4.3,4.3,0,0,1,1.347-1.426,2.931,2.931,0,0,1,1.673-.519" transform="translate(-20.449 -16.743)"/>
      <path id="Path_51" data-name="Path 51" class="cls-4" d="M187.8,46.065V39.8a2.518,2.518,0,0,0-.546-1.761,2.174,2.174,0,0,0-1.681-.581,2.782,2.782,0,0,0-2.227.819,4.137,4.137,0,0,0-.713,2.711v5.088h-1.461V36.391h1.188l.238,1.329h.079a2.975,2.975,0,0,1,1.3-1.127,4.093,4.093,0,0,1,1.813-.4,3.68,3.68,0,0,1,2.641.88,3.592,3.592,0,0,1,.88,2.7V46.1Z" transform="translate(-20.449 -16.743)"/>
      <path id="Path_52" data-name="Path 52" class="cls-4" d="M196,46.241a4.445,4.445,0,0,1-3.389-1.347,5.053,5.053,0,0,1-1.241-3.627,5.625,5.625,0,0,1,1.153-3.724,3.847,3.847,0,0,1,3.1-1.382,3.636,3.636,0,0,1,2.879,1.206,4.578,4.578,0,0,1,1.056,3.151v.933H192.9a3.821,3.821,0,0,0,.88,2.588,2.958,2.958,0,0,0,2.3.88,7.923,7.923,0,0,0,3.09-.651v1.3a7.342,7.342,0,0,1-1.47.484,8.231,8.231,0,0,1-1.673.15m-.4-8.8a2.4,2.4,0,0,0-1.857.757,3.468,3.468,0,0,0-.819,2.1h5.062a3.213,3.213,0,0,0-.625-2.121,2.148,2.148,0,0,0-1.761-.739" transform="translate(-20.449 -16.743)"/>
      <path id="Path_53" data-name="Path 53" class="cls-4" d="M132.042,62.8V56.532a2.544,2.544,0,0,0-.537-1.761,2.209,2.209,0,0,0-1.69-.581,2.773,2.773,0,0,0-2.227.827,4.173,4.173,0,0,0-.7,2.711v5.079h-1.461V53.125h1.188l.238,1.32h.07a3,3,0,0,1,1.268-1.109,4.173,4.173,0,0,1,1.8-.387,3.688,3.688,0,0,1,2.641.88,3.618,3.618,0,0,1,.88,2.694v6.32Z" transform="translate(-20.449 -16.743)"/>
      <rect id="Rectangle_42" data-name="Rectangle 42" class="cls-4" width="1.47" height="13.75" transform="translate(115.88 32.306)"/>
      <path id="Path_54" data-name="Path 54" class="cls-4" d="M140.634,50.493a1.012,1.012,0,0,1,.238-.739.917.917,0,0,1,1.232,0,.986.986,0,0,1,.255.739,1,1,0,0,1-.255.739.917.917,0,0,1-1.232,0,1.039,1.039,0,0,1-.238-.739m1.585,12.324h-1.47V53.134h1.47Z" transform="translate(-20.449 -16.743)"/>
      <path id="Path_55" data-name="Path 55" class="cls-4" d="M151.8,62.8V56.532a2.588,2.588,0,0,0-.537-1.761,2.209,2.209,0,0,0-1.69-.581,2.773,2.773,0,0,0-2.227.827,4.12,4.12,0,0,0-.7,2.711v5.079h-1.47V53.125h1.2l.238,1.32h.07a3.028,3.028,0,0,1,1.259-1.109,4.208,4.208,0,0,1,1.813-.387,3.68,3.68,0,0,1,2.641.88,3.583,3.583,0,0,1,.88,2.694v6.32Z" transform="translate(-20.449 -16.743)"/>
      <path id="Path_56" data-name="Path 56" class="cls-4" d="M160.07,62.975a4.445,4.445,0,0,1-3.38-1.312,5.053,5.053,0,0,1-1.241-3.627,5.66,5.66,0,0,1,1.153-3.724,3.829,3.829,0,0,1,3.1-1.373,3.636,3.636,0,0,1,2.879,1.2,4.586,4.586,0,0,1,1.056,3.16v.88h-6.664a3.864,3.864,0,0,0,.88,2.588,2.975,2.975,0,0,0,2.306.88,7.729,7.729,0,0,0,3.09-.651v1.312a8.1,8.1,0,0,1-1.47.475,8.292,8.292,0,0,1-1.673.15m-.4-8.8a2.394,2.394,0,0,0-1.866.766,3.521,3.521,0,0,0-.819,2.1h5.07a3.231,3.231,0,0,0-.625-2.121,2.148,2.148,0,0,0-1.761-.739" transform="translate(-20.449 -16.743)"/>
      <path id="Path_57" data-name="Path 57" class="cls-5" d="M92.051,28.768c3.583.942,7.113,2.051,10.669,3.09l1.585.475a1.593,1.593,0,0,1,1.329,1.8q0,7.487,0,14.965a8.151,8.151,0,0,1-.766,4.164,4,4,0,0,1-1.347,1.567,5.924,5.924,0,0,0-.176-3.037,3.54,3.54,0,0,0-2.641-2.641c-2.879-.528-5.731-1.18-8.6-1.761-1.188-.246-1.576-.713-1.576-1.91V30.907c0-1.417.379-2.289,1.488-2.139" transform="translate(-20.449 -16.743)"/>
      <path id="Path_58" data-name="Path 58" class="cls-5" d="M102.993,55.106l.053-.343a5.484,5.484,0,0,0-.15-2.773c-.467-1.224-.995-2.033-2.21-2.254-2.033-.37-4.085-.819-6.074-1.241l-2.535-.546a2.148,2.148,0,0,1-2.007-2.438v-14.6a3.521,3.521,0,0,1,.511-2.1,7.041,7.041,0,0,0-.933.211A25.4,25.4,0,0,0,86.5,30.158a2.077,2.077,0,0,0-1.338,2.069q-.062,7.57-.141,15.132c0,1.2.379,1.664,1.567,1.919,3.521.757,7.1,1.514,10.66,2.236a2.562,2.562,0,0,1,1.761,1.25,4.5,4.5,0,0,1,.467,3.574c1.206-.458,2.386-.757,3.521-1.224" transform="translate(-20.449 -16.743)"/>
    </g>
  </g>
</svg>
