<svg id="Bằng_cấp" data-name="Bằng cấp" xmlns="http://www.w3.org/2000/svg" width="70" height="70" viewBox="0 0 70 70">
    <defs>
        <clipPath id="clip-path">
            <rect id="Rectangle_101" data-name="Rectangle 101" width="70" height="70" rx="2" style="fill:#fff;stroke:#707070"/>
        </clipPath>
        <style>
            .cls-3,.cls-7{fill:none;stroke-width:2.824px}.cls-3{stroke:#575756}.cls-3,.cls-7{stroke-linejoin:round}.cls-3{fill-rule:evenodd}.cls-7{stroke:#dc2d27;stroke-linecap:square}
        </style>
    </defs>
    <g id="Mask_Group_44" data-name="Mask Group 44" style="clip-path:url(#clip-path)">
        <g id="V3" transform="translate(9.47 .824)">
            <g id="CourseDetailPage_V3">
                <g id="Group">
                    <g id="Group-27">
                        <g id="Group-29">
                            <g id="Group-15">
                                <path id="Stroke-1" class="cls-3" d="M18.86 60.118H4a4 4 0 0 1-4-4.009V4.01A4 4 0 0 1 4 0h43.06a4.005 4.005 0 0 1 4 4.01v52.1a4 4 0 0 1-4 4.009H32.2"/>
                                <path id="Fill-3" d="M45.647 84.71v18.937L39.034 98.4l-6.563 5.247V84.706a1.345 1.345 0 0 1 .346.61c.08.313.21.775.339 1.217a2.756 2.756 0 0 0 1.679 1.81 2.7 2.7 0 0 0 2.435-.294c.381-.254.773-.52 1.032-.708a1.284 1.284 0 0 1 1.516 0c.258.188.65.454 1.031.708a2.7 2.7 0 0 0 2.433.294 2.747 2.747 0 0 0 1.68-1.81c.131-.442.261-.9.339-1.217a1.358 1.358 0 0 1 .346-.606" transform="translate(-13.529 -35.294)" style="fill:#d9d9d9;fill-rule:evenodd"/>
                                <path id="Stroke-5" class="cls-3" d="M45.647 84.71v18.937L39.034 98.4l-6.563 5.247V84.706a1.345 1.345 0 0 1 .346.61c.08.313.21.775.339 1.217a2.756 2.756 0 0 0 1.679 1.81 2.7 2.7 0 0 0 2.435-.294c.381-.254.773-.52 1.032-.708a1.284 1.284 0 0 1 1.516 0c.258.188.65.454 1.031.708a2.7 2.7 0 0 0 2.433.294 2.747 2.747 0 0 0 1.68-1.81c.131-.442.261-.9.339-1.217a1.358 1.358 0 0 1 .346-.606z" transform="translate(-13.529 -35.294)"/>
                                <path id="Fill-7" d="M34.942 67.754a5.693 5.693 0 1 1 5.625-5.693 5.661 5.661 0 0 1-5.625 5.693m10.717-4.567c.231-.23.56-.579.88-.919a2.806 2.806 0 0 0 .713-2.4 2.776 2.776 0 0 0-1.483-2.011 35.134 35.134 0 0 0-1.136-.556 1.316 1.316 0 0 1-.6-.549 1.336 1.336 0 0 1-.168-.794c.03-.327.063-.809.088-1.276a2.8 2.8 0 0 0-.979-2.308 2.732 2.732 0 0 0-2.413-.576c-.45.111-.915.225-1.224.314a1.307 1.307 0 0 1-1.443-.531 33.42 33.42 0 0 0-.739-1.034 2.736 2.736 0 0 0-4.433 0c-.275.373-.558.766-.74 1.034a1.3 1.3 0 0 1-.635.5 1.32 1.32 0 0 1-.8.032c-.311-.089-.775-.2-1.225-.314a2.737 2.737 0 0 0-2.416.576 2.8 2.8 0 0 0-.977 2.308c.026.467.06.949.089 1.276a1.338 1.338 0 0 1-.766 1.343 35.07 35.07 0 0 0-1.137.556 2.786 2.786 0 0 0-1.485 2.011 2.816 2.816 0 0 0 .715 2.4c.318.34.649.689.88.919a1.342 1.342 0 0 1 .374.719 1.373 1.373 0 0 1-.105.809c-.14.292-.335.735-.519 1.167a2.825 2.825 0 0 0 .14 2.5 2.747 2.747 0 0 0 2.075 1.376c.461.053.936.106 1.258.131a1.326 1.326 0 0 1 .743.308c.028.021.054.048.08.072a1.366 1.366 0 0 1 .35.617c.081.317.213.783.344 1.23a2.788 2.788 0 0 0 1.7 1.83 2.732 2.732 0 0 0 2.465-.3c.385-.257.783-.525 1.045-.715a1.3 1.3 0 0 1 1.534 0c.261.19.659.458 1.044.715a2.73 2.73 0 0 0 2.464.3 2.78 2.78 0 0 0 1.7-1.83c.133-.447.264-.914.344-1.23a1.377 1.377 0 0 1 .35-.613.938.938 0 0 1 .08-.074 1.321 1.321 0 0 1 .745-.31c.322-.024.8-.078 1.258-.131a2.739 2.739 0 0 0 2.073-1.376 2.816 2.816 0 0 0 .143-2.5 35.135 35.135 0 0 0-.52-1.167 1.359 1.359 0 0 1 .268-1.528" transform="translate(-9.412 -20.588)" style="fill:#dc2d27;fill-rule:evenodd"/>
                                <path id="Stroke-9" d="M34.942 67.754a5.693 5.693 0 1 1 5.625-5.693 5.661 5.661 0 0 1-5.625 5.693zm10.717-4.567c.231-.23.56-.579.88-.919a2.806 2.806 0 0 0 .713-2.4 2.776 2.776 0 0 0-1.483-2.011 35.134 35.134 0 0 0-1.136-.556 1.316 1.316 0 0 1-.6-.549 1.336 1.336 0 0 1-.168-.794c.03-.327.063-.809.088-1.276a2.8 2.8 0 0 0-.979-2.308 2.732 2.732 0 0 0-2.413-.576c-.45.111-.915.225-1.224.314a1.307 1.307 0 0 1-1.443-.531 33.42 33.42 0 0 0-.739-1.034 2.736 2.736 0 0 0-4.433 0c-.275.373-.558.766-.74 1.034a1.3 1.3 0 0 1-.635.5 1.32 1.32 0 0 1-.8.032c-.311-.089-.775-.2-1.225-.314a2.737 2.737 0 0 0-2.416.576 2.8 2.8 0 0 0-.977 2.308c.026.467.06.949.089 1.276a1.338 1.338 0 0 1-.766 1.343 35.07 35.07 0 0 0-1.137.556 2.786 2.786 0 0 0-1.485 2.011 2.816 2.816 0 0 0 .715 2.4c.318.34.649.689.88.919a1.342 1.342 0 0 1 .374.719 1.373 1.373 0 0 1-.105.809c-.14.292-.335.735-.519 1.167a2.825 2.825 0 0 0 .14 2.5 2.747 2.747 0 0 0 2.075 1.376c.461.053.936.106 1.258.131a1.326 1.326 0 0 1 .743.308c.028.021.054.048.08.072a1.366 1.366 0 0 1 .35.617c.081.317.213.783.344 1.23a2.788 2.788 0 0 0 1.7 1.83 2.732 2.732 0 0 0 2.465-.3c.385-.257.783-.525 1.045-.715a1.3 1.3 0 0 1 1.534 0c.261.19.659.458 1.044.715a2.73 2.73 0 0 0 2.464.3 2.78 2.78 0 0 0 1.7-1.83c.133-.447.264-.914.344-1.23a1.377 1.377 0 0 1 .35-.613.938.938 0 0 1 .08-.074 1.321 1.321 0 0 1 .745-.31c.322-.024.8-.078 1.258-.131a2.739 2.739 0 0 0 2.073-1.376 2.816 2.816 0 0 0 .143-2.5 35.135 35.135 0 0 0-.52-1.167 1.359 1.359 0 0 1 .268-1.528z" transform="translate(-9.412 -20.588)" style="fill-rule:evenodd;stroke:#575756;fill:none;stroke-width:2.824px"/>
                                <path id="Stroke-11" class="cls-7" transform="translate(11.529 11.118)" d="M0 0h27.176"/>
                                <path id="Stroke-13" class="cls-7" transform="translate(15.647 19.353)" d="M0 0h18.941"/>
                            </g>
                        </g>
                    </g>
                </g>
            </g>
        </g>
    </g>
</svg>
