<svg xmlns="http://www.w3.org/2000/svg" width="16" height="16" viewBox="0 0 16 16">
    <defs>
        <clipPath id="clip-path">
            <circle id="Ellipse_2" data-name="Ellipse 2" cx="8" cy="8" r="8" transform="translate(303 1725)" style="fill:#fff"/>
        </clipPath>
        <style>
            .cls-7{fill:#fff;fill-rule:evenodd}
        </style>
    </defs>
    <g id="Mask_Group_39" data-name="Mask Group 39" transform="translate(-303 -1725)" style="clip-path:url(#clip-path)">
        <g id="tiktok-logo" transform="translate(303 1725)">
            <path id="Path_86" data-name="Path 86" d="M1.6 0h12.8A1.6 1.6 0 0 1 16 1.6v12.8a1.6 1.6 0 0 1-1.6 1.6H1.6A1.6 1.6 0 0 1 0 14.4V1.6A1.6 1.6 0 0 1 1.6 0z" style="fill-rule:evenodd;fill:#010101"/>
            <path id="Path_87" data-name="Path 87" d="M10.047 14.72a.874.874 0 1 0 0-1.749h-.133a.874.874 0 1 1 0 1.749z" style="fill:#ee1d51;fill-rule:evenodd"/>
            <path id="Path_88" data-name="Path 88" d="M9.9 12.971h-.131a.874.874 0 1 0 0 1.749H9.9a.874.874 0 1 1 0-1.749z" style="fill:#66c8cf;fill-rule:evenodd"/>
            <ellipse id="Ellipse_3" data-name="Ellipse 3" cx=".429" cy=".425" rx=".429" ry=".425" transform="translate(9.479 13.42)" style="fill:#010101"/>
            <path id="Path_89" data-name="Path 89" class="cls-7" d="M3.2 12.576v.443h.519v1.689h.519v-1.677h.423l.145-.455zm4.251 0v.443h.519v1.689h.519v-1.677h.423l.145-.455zm-2.551.252a.254.254 0 1 1 .253.252.252.252 0 0 1-.253-.252zm0 .431h.51v1.449H4.9zm.724-.683v2.132h.507v-.551l.157-.144.5.707h.542l-.713-1.03.64-.623h-.616l-.507.5v-.994zm5.47 0v2.132h.506v-.551l.157-.144.5.707h.543l-.713-1.03.64-.623h-.616l-.507.5v-.994z"/>
            <path id="Path_90" data-name="Path 90" d="M10.315 5.2a4.261 4.261 0 0 0 2.485.795V4.208a2.513 2.513 0 0 1-.522-.055v1.4a4.261 4.261 0 0 1-2.485-.795V8.4a3.3 3.3 0 0 1-5.131 2.737 3.3 3.3 0 0 0 5.653-2.3V5.2zm.644-1.8a2.484 2.484 0 0 1-.644-1.454v-.232H9.82A2.5 2.5 0 0 0 10.959 3.4zM5.813 9.74a1.508 1.508 0 0 1 1.658-2.348V5.569a3.326 3.326 0 0 0-.522-.03v1.419A1.508 1.508 0 0 0 5.813 9.74z" style="fill:#ee1d52;fill-rule:evenodd"/>
            <path id="Path_91" data-name="Path 91" class="cls-7" d="M9.793 4.762a4.261 4.261 0 0 0 2.485.795v-1.4a2.5 2.5 0 0 1-1.319-.757A2.5 2.5 0 0 1 9.82 1.714h-1.3v7.119a1.508 1.508 0 0 1-2.708.907 1.508 1.508 0 0 1 1.137-2.782V5.539a3.294 3.294 0 0 0-2.287 5.6A3.3 3.3 0 0 0 9.793 8.4z"/>
            <path id="Path_92" data-name="Path 92" d="M12.278 4.154v-.38a2.486 2.486 0 0 1-1.319-.374 2.493 2.493 0 0 0 1.319.756zM9.82 1.714q-.018-.1-.027-.2V1.28H8V8.4a1.509 1.509 0 0 1-2.187 1.34 1.508 1.508 0 0 0 2.708-.907V1.714zM6.949 5.539v-.4A3.3 3.3 0 0 0 3.2 8.4a3.291 3.291 0 0 0 1.461 2.737 3.294 3.294 0 0 1 2.287-5.6z" style="fill:#69c9d0;fill-rule:evenodd"/>
            <path id="Path_93" data-name="Path 93" class="cls-7" d="M9.914 14.72a.874.874 0 1 0 0-1.749H9.9a.874.874 0 1 0 0 1.749zm-.435-.874a.429.429 0 1 1 .429.425.427.427 0 0 1-.429-.425z"/>
        </g>
    </g>
</svg>
