<svg xmlns="http://www.w3.org/2000/svg" xmlns:xlink="http://www.w3.org/1999/xlink" width="14" height="14" viewBox="0 0 14 14">
  <defs>
    <style>
      .cls-1, .cls-3 {
        fill: #808285;
      }

      .cls-1 {
        stroke: #707070;
      }

      .cls-2 {
        clip-path: url(#clip-path);
      }
    </style>
    <clipPath id="clip-path">
      <rect id="Rectangle_34" data-name="Rectangle 34" class="cls-1" width="14" height="14" transform="translate(363 3501)"/>
    </clipPath>
  </defs>
  <g id="Mask_Group_21" data-name="Mask Group 21" class="cls-2" transform="translate(-363 -3501)">
    <path id="_13728386351561032650" data-name="13728386351561032650" class="cls-3" d="M14,2.659a5.984,5.984,0,0,1-1.654.453,2.854,2.854,0,0,0,1.263-1.586,5.736,5.736,0,0,1-1.82.695A2.87,2.87,0,0,0,6.824,4.183a2.955,2.955,0,0,0,.067.655,8.124,8.124,0,0,1-5.916-3,2.871,2.871,0,0,0,.882,3.836,2.834,2.834,0,0,1-1.3-.353V5.35a2.883,2.883,0,0,0,2.3,2.82,2.865,2.865,0,0,1-.753.094,2.538,2.538,0,0,1-.543-.049,2.9,2.9,0,0,0,2.682,2A5.767,5.767,0,0,1,.687,11.439,5.376,5.376,0,0,1,0,11.4a8.08,8.08,0,0,0,4.4,1.288A8.113,8.113,0,0,0,12.572,4.52c0-.127,0-.249-.011-.371A5.726,5.726,0,0,0,14,2.659Z" transform="translate(363 3501)"/>
  </g>
</svg>
