<svg id="Tín_chỉ" data-name="Tín chỉ" xmlns="http://www.w3.org/2000/svg" width="70" height="70" viewBox="0 0 70 70">
    <defs>
        <clipPath id="clip-path">
            <path id="Rectangle_104" data-name="Rectangle 104" transform="translate(636 777)" style="fill:#fff;stroke:#707070" d="M0 0h70v70H0z"/>
        </clipPath>
        <style>
            .cls-3{fill:#dadad9}.cls-3,.cls-4,.cls-5{fill-rule:evenodd}.cls-4{fill:#dc2d27}.cls-5{fill:#585856}
        </style>
    </defs>
    <g id="Mask_Group_46" data-name="Mask Group 46" transform="translate(-636 -777)" style="clip-path:url(#clip-path)">
        <g id="V3" transform="translate(636.797 776.866)">
            <g id="CourseDetailPage_V3" transform="translate(-650.859 -449.224)">
                <g id="Group">
                    <g id="Group-27" transform="translate(171.624 446.41)">
                        <g id="Group-10" transform="translate(479.235 2.814)">
                            <g id="Group-25">
                                <path id="Fill-1" class="cls-3" d="M10.316 63.661v-6.453h47.83V69.4h-47.83z"/>
                                <g id="Group-24">
                                    <path id="Fill-2" class="cls-3" d="M10.471 8.972a.739.739 0 1 0-.739.745.741.741 0 0 0 .739-.745m7.322 0a.739.739 0 1 0-.739.745.741.741 0 0 0 .739-.745m7.322 0a.739.739 0 1 0-.739.745.741.741 0 0 0 .739-.745M67.6 4.979v10.937H.806V4.979A3.988 3.988 0 0 1 4.75.949h58.908a3.987 3.987 0 0 1 3.942 4.03"/>
                                    <path id="Fill-4" class="cls-4" d="M34.431 49.888H16.585V27.474h4.879v19.249c4.8-2.289 8.593-.1 12.967 3.115z"/>
                                    <path id="Fill-6" class="cls-4" d="M52.279 49.888H34.431v-.049c4.374-3.215 8.166-5.4 12.967-3.115v-19.25h4.881z"/>
                                    <path id="Fill-8" class="cls-5" d="M35.237 26.292V48.26c3.518-2.453 7.109-4.232 11.356-2.749V24.728c-4.528-1.542-7.863-.518-11.356 1.563m-.806 24.362a.794.794 0 0 1-.366-.089.817.817 0 0 1-.44-.727V25.829a.818.818 0 0 1 .387-.7c3.609-2.22 7.762-3.968 13.666-1.744a.815.815 0 0 1 .525.764v22.574a.818.818 0 0 1-.374.689.8.8 0 0 1-.775.049c-4.506-2.149-8.022 0-12.151 3.037a.8.8 0 0 1-.473.155"/>
                                    <path id="Fill-10" class="cls-5" d="M33.958 50.5c-4.129-3.035-7.645-5.186-12.151-3.037a.8.8 0 0 1-.774-.049.818.818 0 0 1-.374-.689V24.152a.816.816 0 0 1 .525-.764c5.9-2.223 10.057-.475 13.666 1.744l-.836 1.394c-3.636-2.237-7.049-3.4-11.744-1.8v20.785c4.763-1.663 8.7.775 12.635 3.667z"/>
                                    <path id="Fill-12" class="cls-5" d="M52.279 50.7H16.585a.811.811 0 0 1-.805-.816v-22.41a.811.811 0 0 1 .805-.816h2.865v1.631h-2.06v20.783h34.084V28.289h-2.061v-1.631h2.867a.811.811 0 0 1 .805.816v22.414a.811.811 0 0 1-.805.816"/>
                                    <path id="Fill-14" class="cls-5" d="M25.205 63.8H52.69v-1.63H25.205z"/>
                                    <path id="Fill-16" class="cls-5" d="M15.718 63.8h3.034v-1.63h-3.034z"/>
                                    <path id="Fill-17" class="cls-5" d="M21.186 66.457H22.8v-6.943h-1.614z"/>
                                    <path id="Fill-18" class="cls-5" d="M58.054 64.173v-1.631h5.6a3.182 3.182 0 0 0 3.137-3.217V4.979a3.18 3.18 0 0 0-3.137-3.215H4.75a3.181 3.181 0 0 0-3.139 3.215v54.346a3.182 3.182 0 0 0 3.139 3.217h5.721v1.631H4.75A4.805 4.805 0 0 1 0 59.325V4.979A4.8 4.8 0 0 1 4.75.134h58.908a4.8 4.8 0 0 1 4.748 4.846v54.345a4.8 4.8 0 0 1-4.748 4.848z"/>
                                    <path id="Fill-19" class="cls-5" d="M9.732 8.9a.068.068 0 0 0-.066.071.066.066 0 1 0 .133 0 .068.068 0 0 0-.067-.071m0 1.631a1.56 1.56 0 1 1 1.544-1.56 1.554 1.554 0 0 1-1.544 1.56"/>
                                    <path id="Fill-20" class="cls-5" d="M17.054 8.9a.068.068 0 0 0-.066.071.066.066 0 1 0 .133 0 .068.068 0 0 0-.066-.071m0 1.631A1.56 1.56 0 1 1 18.6 8.972a1.554 1.554 0 0 1-1.545 1.56"/>
                                    <path id="Fill-21" class="cls-5" d="M24.376 8.9a.068.068 0 0 0-.066.071.066.066 0 1 0 .133 0 .068.068 0 0 0-.066-.071m0 1.631a1.56 1.56 0 1 1 1.545-1.56 1.554 1.554 0 0 1-1.545 1.56"/>
                                    <path id="Fill-22" class="cls-5" d="M.805 16.732h63.55V15.1H.805z"/>
                                    <path id="Fill-23" class="cls-5" d="M11.157 68.5h46.092V57.469H11.157zm46.9 1.631h-47.7a.811.811 0 0 1-.805-.816V56.653a.811.811 0 0 1 .805-.816h47.7a.811.811 0 0 1 .805.816v12.665a.811.811 0 0 1-.805.816z"/>
                                </g>
                            </g>
                        </g>
                    </g>
                </g>
            </g>
        </g>
    </g>
</svg>
