<svg xmlns="http://www.w3.org/2000/svg" width="16" height="16" viewBox="0 0 16 16">
    <defs>
        <clipPath id="clip-path">
            <circle id="Ellipse_1" data-name="Ellipse 1" cx="8" cy="8" r="8" transform="translate(282 1725)" style="fill:#fff"/>
        </clipPath>
        <style>
            .cls-3{fill:#fdfefe}.cls-4{fill:#0180c7}
        </style>
    </defs>
    <g id="Mask_Group_38" data-name="Mask Group 38" transform="translate(-282 -1725)" style="clip-path:url(#clip-path)">
        <g id="zalo-logo-inkythuatso" transform="translate(280.631 1724.111)">
            <path id="Path_79" data-name="Path 79" class="cls-3" d="M4.246 14.542c-.062-.028-.108-.059-.034-.121.045-.034.094-.066.142-.1a3.448 3.448 0 0 0 1.164-1.095.63.63 0 0 0-.1-.921 6.588 6.588 0 0 1-2.006-5.943 6.677 6.677 0 0 1 1.681-3.436 7.462 7.462 0 0 1 1.845-1.484c.042-.024.1-.031.108-.094-.014-.034-.038-.024-.059-.024-1.171 0-2.342-.024-3.509.007A2.113 2.113 0 0 0 1.4 3.472c.007 3.624 0 7.249 0 10.876a2.081 2.081 0 0 0 1.981 2.11c.948.038 1.9.007 2.85 0 .07 0 .139.007.208.007h5.018c1.251 0 2.5.007 3.753 0a2.1 2.1 0 0 0 2.1-2.1v-2.046a.259.259 0 0 0-.014-.153c-.062 0-.087.055-.121.091a7.688 7.688 0 0 1-2.342 1.609 8.662 8.662 0 0 1-6.518.25 1.027 1.027 0 0 0-.6-.028c-.292.073-.58.16-.869.247a5.257 5.257 0 0 1-2.6.208zm2.519-5.856c.059-.076.091-.121.125-.166q.683-.865 1.366-1.734a2.331 2.331 0 0 0 .344-.538.378.378 0 0 0-.243-.529.937.937 0 0 0-.327-.038H6.171a1.055 1.055 0 0 0-.257.031.365.365 0 0 0-.264.445.371.371 0 0 0 .271.268.9.9 0 0 0 .257.028h1.129c.042 0 .094-.028.125.034a2.413 2.413 0 0 1-.094.121C6.8 7.293 6.27 7.978 5.73 8.659a.48.48 0 0 0 .393.828c.16.01.323 0 .487 0h1.685a.388.388 0 0 0 .427-.462c-.024-.219-.174-.334-.452-.337H6.765zM10.8 6.859a1.1 1.1 0 0 0-1.383-.125A1.45 1.45 0 0 0 8.7 8.245a1.358 1.358 0 0 0 .942 1.271 1.064 1.064 0 0 0 1.06-.177c.083-.066.108-.052.166.021a.427.427 0 0 0 .487.136.407.407 0 0 0 .289-.393c0-.695.007-1.39 0-2.085a.428.428 0 0 0-.535-.4.542.542 0 0 0-.316.24zm2.4 1.289a1.416 1.416 0 0 0 1.609 1.435A1.447 1.447 0 0 0 16.154 8a1.477 1.477 0 1 0-2.95.15zm-.3-.691V5.823a.436.436 0 1 0-.873 0v3.246a.454.454 0 0 0 .306.448.444.444 0 0 0 .547-.317.406.406 0 0 0 .014-.128c.007-.539 0-1.077 0-1.616z"/>
            <path id="Path_80" data-name="Path 80" class="cls-4" d="M6.223 16.464c-.948 0-1.9.031-2.85 0a2.085 2.085 0 0 1-1.981-2.11c0-3.624.007-7.249 0-10.876a2.116 2.116 0 0 1 2.086-2.141c1.167-.031 2.338-.007 3.509-.007.021 0 .049-.01.059.024-.007.062-.07.07-.108.094a7.5 7.5 0 0 0-1.845 1.485 6.692 6.692 0 0 0-1.681 3.436 6.6 6.6 0 0 0 2.008 5.946.636.636 0 0 1 .1.921 3.441 3.441 0 0 1-1.167 1.094c-.049.028-.1.062-.146.094-.073.062-.028.094.034.121a.447.447 0 0 0 .052.087c.4.355.778.733 1.171 1.095.184.17.368.348.546.525.074.065.196.086.213.212z"/>
            <path id="Path_81" data-name="Path 81" d="M6.223 16.464c-.017-.121-.139-.142-.212-.215a14.196 14.196 0 0 0-.546-.525c-.393-.361-.771-.74-1.171-1.095a.447.447 0 0 1-.052-.087 5.3 5.3 0 0 0 2.6-.2c.289-.087.576-.174.869-.247a1 1 0 0 1 .6.028 8.677 8.677 0 0 0 6.518-.25 7.69 7.69 0 0 0 2.342-1.605c.034-.034.059-.087.121-.091.031.049.014.1.014.153v2.033a2.1 2.1 0 0 1-2.085 2.116H15.2c-1.251.007-2.5 0-3.753 0H6.431a1.765 1.765 0 0 0-.208-.011z" style="fill:#0172b1"/>
            <path id="Path_82" data-name="Path 82" class="cls-4" d="M6.765 8.686h1.508c.274 0 .424.118.452.337a.389.389 0 0 1-.427.462c-.563.007-1.122 0-1.685 0-.163 0-.323.007-.487 0a.512.512 0 0 1-.5-.261.52.52 0 0 1 .1-.567 720.602 720.602 0 0 1 1.707-2.168c-.034-.059-.083-.031-.125-.034H6.179a1.274 1.274 0 0 1-.257-.028.364.364 0 0 1-.007-.709 1.055 1.055 0 0 1 .257-.031h1.859a1.148 1.148 0 0 1 .327.038.379.379 0 0 1 .243.529 2.429 2.429 0 0 1-.348.538q-.683.87-1.366 1.73a2.73 2.73 0 0 0-.129.168z"/>
            <path id="Path_83" data-name="Path 83" class="cls-4" d="M10.8 6.859a.532.532 0 0 1 .313-.236.427.427 0 0 1 .535.4c.01.695.007 1.39 0 2.085a.412.412 0 0 1-.289.393.422.422 0 0 1-.487-.136c-.059-.073-.083-.087-.166-.021a1.064 1.064 0 0 1-1.06.177A1.37 1.37 0 0 1 8.7 8.249a1.441 1.441 0 0 1 .71-1.512 1.1 1.1 0 0 1 1.386.121zM9.566 8.127a.754.754 0 0 0 .146.421.574.574 0 0 0 .8.115.593.593 0 0 0 .115-.115.865.865 0 0 0 0-.963.523.523 0 0 0-.414-.219c-.383-.024-.651.272-.647.761zm3.638.021A1.479 1.479 0 1 1 16.158 8a1.448 1.448 0 0 1-1.341 1.585A1.417 1.417 0 0 1 13.2 8.148zm.872-.083a.77.77 0 0 0 .149.487.566.566 0 0 0 .8.1.618.618 0 0 0 .1-.1.865.865 0 0 0 0-.973.534.534 0 0 0-.414-.219.62.62 0 0 0-.635.705zM12.9 7.457v1.616a.452.452 0 0 1-.438.459.54.54 0 0 1-.129-.014.45.45 0 0 1-.306-.448V5.819a.436.436 0 1 1 .873.007v1.631z"/>
            <path id="Path_84" data-name="Path 84" class="cls-3" d="M9.566 8.127c0-.49.264-.786.642-.765a.535.535 0 0 1 .414.223.865.865 0 0 1 0 .963.574.574 0 0 1-.8.115.593.593 0 0 1-.115-.115.78.78 0 0 1-.142-.421zm4.51-.062a.622.622 0 0 1 .639-.7.534.534 0 0 1 .414.219.865.865 0 0 1 0 .973.573.573 0 0 1-.8.094.443.443 0 0 1-.1-.1.8.8 0 0 1-.153-.486z"/>
            <path id="Path_85" data-name="Path 85" d="M3.669 1.341h11.4a2.259 2.259 0 0 1 2.26 2.259v10.528a2.259 2.259 0 0 1-2.259 2.259H3.669a2.259 2.259 0 0 1-2.259-2.259V3.6a2.259 2.259 0 0 1 2.259-2.259z" style="fill:none;stroke:#0180c7;stroke-miterlimit:54.329;stroke-width:.081px"/>
        </g>
    </g>
</svg>
